# xmcd
#
# Track frame offsets:
# 150
# 20342
# 38827
# 55516
# 74800
# 94593
# 114412
# 133519
# 160125
#
# Disc length: 2488 seconds
#
#
# Revision: 2
# Processed by: cddbd v1.5.1PL0 Copyright (c) Steve Scherf et al.
# Submitted via: FreeRIP 2.942 
#
DISCID=6f09b609
DTITLE=Michael Franks - The Camera Never Lies
DYEAR=1900
DGENRE=
TTITLE0=Face to Face
TTITLE1=I Surrender
TTITLE2=The Camera Never Lies
TTITLE3=Lip Service
TTITLE4=When I Think of Us
TTITLE5=Island Life
TTITLE6=Now You're in my Dreams
TTITLE7=Doctor Sax
TTITLE8=Innuendo
EXTD=
EXTT0=
EXTT1=
EXTT2=
EXTT3=
EXTT4=
EXTT5=
EXTT6=
EXTT7=
EXTT8=
PLAYORDER=
